<svg width="18" height="18" viewBox="0 0 18 18" fill="none" xmlns="http://www.w3.org/2000/svg">
<path d="M14.8275 8.4375H11.7975C10.29 8.4375 9.5625 7.7025 9.5625 6.2025V3.1725C9.5625 1.665 10.2975 0.9375 11.7975 0.9375H14.8275C16.335 0.9375 17.0625 1.6725 17.0625 3.1725V6.2025C17.0625 7.7025 16.3275 8.4375 14.8275 8.4375ZM11.7975 2.0625C10.9125 2.0625 10.6875 2.2875 10.6875 3.1725V6.2025C10.6875 7.0875 10.9125 7.3125 11.7975 7.3125H14.8275C15.7125 7.3125 15.9375 7.0875 15.9375 6.2025V3.1725C15.9375 2.2875 15.7125 2.0625 14.8275 2.0625H11.7975Z" fill="#797F86"/>
<path d="M6.2025 8.4375H3.1725C1.665 8.4375 0.9375 7.77 0.9375 6.39V2.985C0.9375 1.605 1.6725 0.9375 3.1725 0.9375H6.2025C7.71 0.9375 8.4375 1.605 8.4375 2.985V6.3825C8.4375 7.77 7.7025 8.4375 6.2025 8.4375ZM3.1725 2.0625C2.1675 2.0625 2.0625 2.3475 2.0625 2.985V6.3825C2.0625 7.0275 2.1675 7.305 3.1725 7.305H6.2025C7.2075 7.305 7.3125 7.02 7.3125 6.3825V2.985C7.3125 2.34 7.2075 2.0625 6.2025 2.0625H3.1725Z" fill="#797F86"/>
<path d="M6.2025 17.0625H3.1725C1.665 17.0625 0.9375 16.3275 0.9375 14.8275V11.7975C0.9375 10.29 1.6725 9.5625 3.1725 9.5625H6.2025C7.71 9.5625 8.4375 10.2975 8.4375 11.7975V14.8275C8.4375 16.3275 7.7025 17.0625 6.2025 17.0625ZM3.1725 10.6875C2.2875 10.6875 2.0625 10.9125 2.0625 11.7975V14.8275C2.0625 15.7125 2.2875 15.9375 3.1725 15.9375H6.2025C7.0875 15.9375 7.3125 15.7125 7.3125 14.8275V11.7975C7.3125 10.9125 7.0875 10.6875 6.2025 10.6875H3.1725Z" fill="#797F86"/>
<path d="M15.75 12.1875H11.25C10.9425 12.1875 10.6875 11.9325 10.6875 11.625C10.6875 11.3175 10.9425 11.0625 11.25 11.0625H15.75C16.0575 11.0625 16.3125 11.3175 16.3125 11.625C16.3125 11.9325 16.0575 12.1875 15.75 12.1875Z" fill="#797F86"/>
<path d="M15.75 15.1875H11.25C10.9425 15.1875 10.6875 14.9325 10.6875 14.625C10.6875 14.3175 10.9425 14.0625 11.25 14.0625H15.75C16.0575 14.0625 16.3125 14.3175 16.3125 14.625C16.3125 14.9325 16.0575 15.1875 15.75 15.1875Z" fill="#797F86"/>
</svg>
