<svg width="18" height="18" viewBox="0 0 18 18" fill="none" xmlns="http://www.w3.org/2000/svg">
<path d="M11.43 16.7025H11.3325C8.00251 16.7025 6.39751 15.39 6.12001 12.45C6.09001 12.1425 6.31501 11.865 6.63001 11.835C6.93001 11.805 7.21501 12.0375 7.24501 12.345C7.46251 14.7 8.57251 15.5775 11.34 15.5775H11.4375C14.49 15.5775 15.57 14.4975 15.57 11.445V6.55499C15.57 3.50249 14.49 2.42249 11.4375 2.42249H11.34C8.55751 2.42249 7.44751 3.31499 7.24501 5.71499C7.20751 6.02249 6.94501 6.25499 6.63001 6.22499C6.31501 6.20249 6.09001 5.92499 6.11251 5.61749C6.36751 2.63249 7.98001 1.29749 11.3325 1.29749H11.43C15.1125 1.29749 16.6875 2.87249 16.6875 6.55499V11.445C16.6875 15.1275 15.1125 16.7025 11.43 16.7025Z" fill="#797F86"/>
<path d="M11.25 9.5625H2.71503C2.40753 9.5625 2.15253 9.3075 2.15253 9C2.15253 8.6925 2.40753 8.4375 2.71503 8.4375H11.25C11.5575 8.4375 11.8125 8.6925 11.8125 9C11.8125 9.3075 11.5575 9.5625 11.25 9.5625Z" fill="#797F86"/>
<path d="M4.38752 12.075C4.24502 12.075 4.10252 12.0225 3.99002 11.91L1.47752 9.39751C1.26002 9.18001 1.26002 8.82001 1.47752 8.60251L3.99002 6.09C4.20752 5.8725 4.56752 5.8725 4.78502 6.09C5.00252 6.3075 5.00252 6.66751 4.78502 6.88501L2.67002 9.00001L4.78502 11.115C5.00252 11.3325 5.00252 11.6925 4.78502 11.91C4.68002 12.0225 4.53002 12.075 4.38752 12.075Z" fill="#797F86"/>
</svg>
