<svg width="40" height="40" viewBox="0 0 40 40" fill="none" xmlns="http://www.w3.org/2000/svg">
<path opacity="0.4" d="M36.6667 12.3833V22.3833C36.6667 24.8833 35.8334 26.9667 34.3667 28.4333C32.9167 29.8833 30.8334 30.7167 28.3334 30.7167V34.2667C28.3334 35.6 26.8501 36.4 25.7501 35.6667L18.3334 30.7167H14.8C14.9334 30.2167 15 29.7 15 29.1667C15 27.4667 14.35 25.9 13.2834 24.7167C12.0834 23.35 10.3 22.5 8.33337 22.5C6.46671 22.5 4.76672 23.2667 3.55005 24.5167C3.40005 23.85 3.33337 23.1333 3.33337 22.3833V12.3833C3.33337 7.38332 6.66671 4.04999 11.6667 4.04999H28.3334C33.3334 4.04999 36.6667 7.38332 36.6667 12.3833Z" fill="#FDE616"/>
<path d="M25.8333 18.75H14.1666C13.4833 18.75 12.9166 18.1833 12.9166 17.5C12.9166 16.8167 13.4833 16.25 14.1666 16.25H25.8333C26.5166 16.25 27.0833 16.8167 27.0833 17.5C27.0833 18.1833 26.5166 18.75 25.8333 18.75Z" fill="#FDE616"/>
<path d="M8.33329 22.5C4.64996 22.5 1.66663 25.4833 1.66663 29.1667C1.66663 30.4167 2.0166 31.6 2.63327 32.6C3.78327 34.5333 5.89996 35.8333 8.33329 35.8333C10.7666 35.8333 12.8833 34.5333 14.0333 32.6C14.65 31.6 15 30.4167 15 29.1667C15 25.4833 12.0166 22.5 8.33329 22.5ZM11.6166 28.6166L8.06662 31.9C7.83329 32.1167 7.5166 32.2334 7.2166 32.2334C6.89994 32.2334 6.58327 32.1167 6.33327 31.8667L4.68329 30.2167C4.19996 29.7333 4.19996 28.9333 4.68329 28.45C5.16662 27.9667 5.96662 27.9667 6.44995 28.45L7.24997 29.25L9.91665 26.7833C10.4166 26.3167 11.2166 26.35 11.6833 26.85C12.15 27.35 12.1166 28.15 11.6166 28.6166Z" fill="#FDE616"/>
</svg>
